<svg xmlns="http://www.w3.org/2000/svg" viewBox="0 0 122.52 122.523">
  <g>
    <path d="M8.708,61.26c0,20.803,12.089,38.779,29.619,47.298L13.258,39.872C10.342,46.455,8.708,53.67,8.708,61.26z" fill="#21759B"/>
    <path d="M96.74,58.608c0-6.495-2.333-10.993-4.334-14.494c-2.664-4.329-5.161-7.995-5.161-12.324c0-4.831,3.664-9.328,8.825-9.328c0.233,0,0.454,0.029,0.681,0.042C88.029,14.373,75.276,8.708,61.26,8.708c-18.658,0-35.073,9.571-44.677,24.071c1.255,0.038,2.438,0.063,3.447,0.063c5.607,0,14.275-0.68,14.275-0.68c2.888-0.169,3.23,4.066,0.342,4.399c0,0-2.903,0.34-6.132,0.51l19.503,58.02l11.723-35.138l-8.348-22.882c-2.886-0.17-5.617-0.51-5.617-0.51c-2.887-0.17-2.548-4.569,0.338-4.399c0,0,8.839,0.68,14.108,0.68c5.608,0,14.278-0.68,14.278-0.68c2.89-0.169,3.233,4.066,0.343,4.399c0,0-2.906,0.34-6.132,0.51l19.362,57.601l5.342-17.851C94.745,69.931,96.74,63.978,96.74,58.608z" fill="#21759B"/>
    <path d="M62.184,65.857l-16.084,46.729c4.805,1.41,9.887,2.177,15.16,2.177c6.245,0,12.239-1.08,17.806-3.037c-0.143-0.229-0.273-0.468-0.376-0.724L62.184,65.857z" fill="#21759B"/>
    <path d="M107.376,36.046c0.226,1.674,0.354,3.471,0.354,5.404c0,5.333-0.996,11.328-3.996,18.824l-16.053,46.423c15.624-9.111,26.133-26.038,26.133-45.437C113.814,52.874,111.392,43.889,107.376,36.046z" fill="#21759B"/>
    <path d="M61.26,0C27.483,0,0,27.481,0,61.26c0,33.783,27.483,61.263,61.26,61.263c33.777,0,61.264-27.48,61.264-61.263C122.523,27.481,95.036,0,61.26,0z M61.26,119.715c-32.23,0-58.453-26.223-58.453-58.455c0-32.23,26.222-58.451,58.453-58.451c32.229,0,58.45,26.221,58.45,58.451C119.71,93.492,93.489,119.715,61.26,119.715z" fill="#21759B"/>
  </g>
</svg>
